<?xml version="1.0" encoding="utf-8"?>
<!-- Generator: Adobe Illustrator 26.3.1, SVG Export Plug-In . SVG Version: 6.00 Build 0)  -->
<svg version="1.1" id="Laag_1" xmlns="http://www.w3.org/2000/svg" xmlns:xlink="http://www.w3.org/1999/xlink" x="0px" y="0px"
	 viewBox="0 0 386.6 143.7" style="enable-background:new 0 0 386.6 143.7;" xml:space="preserve">
<style type="text/css">
	.st0{fill:#293676;}
</style>
<g>
	<g>
		<path class="st0" d="M127.7,67.1c-3.9,5.1-10.5,7.4-16.7,5.8c-0.3-0.1-0.6-0.2-0.9-0.4c-4.3-1.6-6.9-5.4-7.3-11.1
			c-0.1-0.8-0.1-1.6,0-2.4c0.6-8.8,6.8-14.7,14.8-14.9c5.1-0.1,9.4,2.5,11.6,6.7c0.2,0.4,0.5,0.8,0.6,1.2
			C132.1,56.7,130.8,63.1,127.7,67.1 M128.5,27c-6.1,0-11.2,1.5-17.5,5.4l-3.9,2.4l0.9-6H84l-11.2,78.4h24.5l4-26.9l2,2.2
			c5,5.5,10.7,7.8,19,7.7c19-0.4,33.3-14.4,32.9-35.8C154.7,37.8,143.6,27.1,128.5,27"/>
		<path class="st0" d="M213.3,65.6c-2.4,4.4-6.6,7.2-11.8,7.4c-0.6,0.3-1.2,0.1-1.8,0c-0.3,0-0.7,0-1-0.1c0,0-0.1,0-0.2,0
			c-0.4-0.1-0.8-0.1-1.2-0.2c-5.2-1.2-9-5.3-9.6-11.1c-0.1-1-0.1-2,0.1-3.1c1.1-8.2,7.1-13.4,14.1-13.7c5-0.2,9.3,2.3,11.3,6.6
			C215.5,55.5,215.5,61.6,213.3,65.6 M218.1,29.2l-1.3,6.7l-2.7-2c-6.1-4.7-11.2-6.4-18-6.4c-17.9,0.1-33.6,14.6-33.9,34.7
			c-0.2,15,9.2,25.9,22.5,28.2c2.1,0.4,4.1,0.5,6.1,0.4c5.2-0.2,10.3-1.8,15-4.7l3.8-2.4v5.5h24.1l8.6-60H218.1z"/>
		<path class="st0" d="M299.1,47.8c-3-1.3-5.9-2-8.7-2.1c-2.8-0.1-5.7,0.6-8,2c-4.3,2.6-6.4,6-7.8,14.5l-4.3,27h-24.2l8.4-60H279
			l-1.2,6.2l0.1,0.1l3.7-2.7c5.7-4.2,9.2-5.4,15.6-5.4h5.1L299.1,47.8z"/>
	</g>
	<polygon class="st0" points="311.9,8 300.6,89.4 324.8,89.4 328.4,63.1 328.5,63 350.1,89.4 382.2,89.4 353.7,58 383.2,29.2 
		350.7,29.2 330.5,49.4 330.4,49.4 336.4,8 	"/>
	<g>
		<path class="st0" d="M14.9,65.6l3.4,1.8c8.1,4.2,12.5,5.4,17.7,5.3c6.1,0,10-3.5,10-7.5c0-3.5-2.4-6.2-10.1-9.2
			c-1.2-0.5-2.5-1-3.7-1.5c-14.4-6.5-19.8-14.1-19-24.7c1-13.5,12.6-23.2,31.1-23.5c9.7-0.2,19.6,2.2,25.5,5.5L72,13l-8.4,16.8
			l-2-1.3c-5.6-3.5-9.8-4.9-14.1-5.1c-5.9-0.2-9.8,3.1-9.8,6.6c0.1,2.5,1.5,4.4,6,6.8l8.4,3.5c12.2,4.9,17.9,12.3,18.2,22.4
			c0.4,15.8-13.4,28.4-33.8,29C25.9,91.9,17.3,89.7,7.4,84l-2.2-1.3L14.9,65.6z"/>
		<path class="st0" d="M362,133.7v-12.5h2.7c4,0,6.2,2.4,6.2,6.3c0,3.9-2.3,6.2-6.2,6.2H362z M364.8,118h-6.6v19h6.6
			c6.1,0,10-3.7,10-9.5C374.8,121.7,370.9,118,364.8,118 M329.4,117.9v13l-8.6-13H317v19h3.8v-13l8.6,13h3.8v-19H329.4z
			 M287.4,130.3h-5.5l2.7-7.9L287.4,130.3z M289.7,136.9h4l-6.8-19h-4.4l-6.8,19h4l1.2-3.6h7.6L289.7,136.9z M243,118v19h10v-3h-6.2
			v-16H243z M209.8,118v19h10v-3h-6.2v-16H209.8z M170.3,127.4c0-3.9,2.4-6.3,5.8-6.3c3.4,0,5.8,2.4,5.8,6.3c0,3.9-2.4,6.3-5.8,6.3
			C172.7,133.7,170.3,131.3,170.3,127.4 M185.8,127.4c0-5.7-4.3-9.7-9.7-9.7c-5.4,0-9.7,4-9.7,9.7c0,5.7,4.4,9.7,9.7,9.7
			C181.5,137.1,185.8,133.1,185.8,127.4 M138.6,136.9h3.8v-19h-3.8v7.8h-8.1V118h-3.8v19h3.8v-8.1h8.1V136.9z"/>
	</g>
</g>
</svg>
